<svg width="56" height="44" viewBox="0 0 56 44" fill="none" xmlns="http://www.w3.org/2000/svg">
<rect width="56" height="44" fill="black"/>
<g clip-path="url(#clip0_0_1095)">
<path fill-rule="evenodd" clip-rule="evenodd" d="M20 16C20 14.8954 20.8954 14 22 14C23.1046 14 24 14.8954 24 16C24 17.1046 23.1046 18 22 18C20.8954 18 20 17.1046 20 16ZM26 16C26 14.8954 26.8954 14 28 14C29.1046 14 30 14.8954 30 16C30 17.1046 29.1046 18 28 18C26.8954 18 26 17.1046 26 16ZM36 16C36 14.8954 35.1046 14 34 14C32.8954 14 32 14.8954 32 16C32 17.1046 32.8954 18 34 18C35.1046 18 36 17.1046 36 16ZM20 22C20 20.8954 20.8954 20 22 20C23.1046 20 24 20.8954 24 22C24 23.1046 23.1046 24 22 24C20.8954 24 20 23.1046 20 22ZM30 22C30 20.8954 29.1046 20 28 20C26.8954 20 26 20.8954 26 22C26 23.1046 26.8954 24 28 24C29.1046 24 30 23.1046 30 22ZM32 22C32 20.8954 32.8954 20 34 20C35.1046 20 36 20.8954 36 22C36 23.1046 35.1046 24 34 24C32.8954 24 32 23.1046 32 22ZM24 28C24 26.8954 23.1046 26 22 26C20.8954 26 20 26.8954 20 28C20 29.1046 20.8954 30 22 30C23.1046 30 24 29.1046 24 28ZM26 28C26 26.8954 26.8954 26 28 26C29.1046 26 30 26.8954 30 28C30 29.1046 29.1046 30 28 30C26.8954 30 26 29.1046 26 28ZM36 28C36 26.8954 35.1046 26 34 26C32.8954 26 32 26.8954 32 28C32 29.1046 32.8954 30 34 30C35.1046 30 36 29.1046 36 28Z" fill="white"/>
</g>
<defs>
<clipPath id="clip0_0_1095">
<rect width="16" height="16" fill="white" transform="translate(20 14)"/>
</clipPath>
</defs>
</svg>
